<?xml version="1.0" encoding="iso-8859-1"?>
<!-- Generator: Adobe Illustrator 18.1.1, SVG Export Plug-In . SVG Version: 6.00 Build 0)  -->
<svg version="1.1" xmlns="http://www.w3.org/2000/svg" xmlns:xlink="http://www.w3.org/1999/xlink" x="0px" y="0px"
	 viewBox="0 0 164.706 166.09" style="enable-background:new 0 0 164.706 166.09;" xml:space="preserve">
<g id="linkedin">
	<g>
		<path style="fill:#A7A9AC;" d="M164.706,154.084c0,6.63-5.375,12.006-12.006,12.006H12.006C5.375,166.09,0,160.715,0,154.084
			V12.006C0,5.375,5.375,0,12.006,0H152.7c6.63,0,12.006,5.375,12.006,12.006V154.084z"/>
		<g>
			<path style="fill:#FFFFFF;" d="M34.408,129.451V61.323h23.126v68.129H34.408z"/>
			<path style="fill:#FFFFFF;" d="M113.662,129.451V87.949c0-5.751-0.625-12.125-8-12.125c-7.501,0-9.375,7-9.375,13.251v40.377
				H73.16c0,0,0.046-63.934,0.046-68.448l21.552-0.021l0.028,10.716c3.875-7.876,12.001-11.626,20.501-11.626
				c14.5,0,21.501,8.126,21.501,22.376v47.002H113.662z"/>
		</g>
		<circle style="fill:#FFFFFF;" cx="45.54" cy="38.427" r="12.632"/>
	</g>
</g>
<g id="Layer_1">
</g>
</svg>
